solid l_bracket
facet normal 0.000000 0.000000 1.000000
  outer loop
    vertex 0.000000 0.000000 0.000000
    vertex 10.000000 0.000000 0.000000
    vertex 10.000000 40.000000 0.000000
  endloop
endfacet
facet normal 0.000000 0.000000 1.000000
  outer loop
    vertex 0.000000 0.000000 0.000000
    vertex 10.000000 40.000000 0.000000
    vertex 0.000000 40.000000 0.000000
  endloop
endfacet
facet normal 0.000000 0.000000 -1.000000
  outer loop
    vertex 0.000000 0.000000 4.000000
    vertex 10.000000 40.000000 4.000000
    vertex 10.000000 0.000000 4.000000
  endloop
endfacet
facet normal 0.000000 0.000000 -1.000000
  outer loop
    vertex 0.000000 0.000000 4.000000
    vertex 0.000000 40.000000 4.000000
    vertex 10.000000 40.000000 4.000000
  endloop
endfacet
facet normal 0.000000 1.000000 0.000000
  outer loop
    vertex 0.000000 0.000000 0.000000
    vertex 10.000000 0.000000 4.000000
    vertex 10.000000 0.000000 0.000000
  endloop
endfacet
facet normal 0.000000 1.000000 0.000000
  outer loop
    vertex 0.000000 0.000000 0.000000
    vertex 0.000000 0.000000 4.000000
    vertex 10.000000 0.000000 4.000000
  endloop
endfacet
facet normal 0.000000 -1.000000 0.000000
  outer loop
    vertex 0.000000 40.000000 0.000000
    vertex 10.000000 40.000000 0.000000
    vertex 10.000000 40.000000 4.000000
  endloop
endfacet
facet normal 0.000000 -1.000000 0.000000
  outer loop
    vertex 0.000000 40.000000 0.000000
    vertex 10.000000 40.000000 4.000000
    vertex 0.000000 40.000000 4.000000
  endloop
endfacet
facet normal 1.000000 0.000000 0.000000
  outer loop
    vertex 0.000000 0.000000 0.000000
    vertex 0.000000 40.000000 0.000000
    vertex 0.000000 40.000000 4.000000
  endloop
endfacet
facet normal 1.000000 0.000000 0.000000
  outer loop
    vertex 0.000000 0.000000 0.000000
    vertex 0.000000 40.000000 4.000000
    vertex 0.000000 0.000000 4.000000
  endloop
endfacet
facet normal -1.000000 0.000000 0.000000
  outer loop
    vertex 10.000000 0.000000 0.000000
    vertex 10.000000 40.000000 4.000000
    vertex 10.000000 40.000000 0.000000
  endloop
endfacet
facet normal -1.000000 0.000000 0.000000
  outer loop
    vertex 10.000000 0.000000 0.000000
    vertex 10.000000 0.000000 4.000000
    vertex 10.000000 40.000000 4.000000
  endloop
endfacet
facet normal 0.000000 0.000000 1.000000
  outer loop
    vertex 0.000000 0.000000 0.000000
    vertex 40.000000 0.000000 0.000000
    vertex 40.000000 10.000000 0.000000
  endloop
endfacet
facet normal 0.000000 0.000000 1.000000
  outer loop
    vertex 0.000000 0.000000 0.000000
    vertex 40.000000 10.000000 0.000000
    vertex 0.000000 10.000000 0.000000
  endloop
endfacet
facet normal 0.000000 0.000000 -1.000000
  outer loop
    vertex 0.000000 0.000000 4.000000
    vertex 40.000000 10.000000 4.000000
    vertex 40.000000 0.000000 4.000000
  endloop
endfacet
facet normal 0.000000 0.000000 -1.000000
  outer loop
    vertex 0.000000 0.000000 4.000000
    vertex 0.000000 10.000000 4.000000
    vertex 40.000000 10.000000 4.000000
  endloop
endfacet
facet normal 0.000000 1.000000 0.000000
  outer loop
    vertex 0.000000 0.000000 0.000000
    vertex 40.000000 0.000000 4.000000
    vertex 40.000000 0.000000 0.000000
  endloop
endfacet
facet normal 0.000000 1.000000 0.000000
  outer loop
    vertex 0.000000 0.000000 0.000000
    vertex 0.000000 0.000000 4.000000
    vertex 40.000000 0.000000 4.000000
  endloop
endfacet
facet normal 0.000000 -1.000000 0.000000
  outer loop
    vertex 0.000000 10.000000 0.000000
    vertex 40.000000 10.000000 0.000000
    vertex 40.000000 10.000000 4.000000
  endloop
endfacet
facet normal 0.000000 -1.000000 0.000000
  outer loop
    vertex 0.000000 10.000000 0.000000
    vertex 40.000000 10.000000 4.000000
    vertex 0.000000 10.000000 4.000000
  endloop
endfacet
facet normal 1.000000 0.000000 0.000000
  outer loop
    vertex 0.000000 0.000000 0.000000
    vertex 0.000000 10.000000 0.000000
    vertex 0.000000 10.000000 4.000000
  endloop
endfacet
facet normal 1.000000 0.000000 0.000000
  outer loop
    vertex 0.000000 0.000000 0.000000
    vertex 0.000000 10.000000 4.000000
    vertex 0.000000 0.000000 4.000000
  endloop
endfacet
facet normal -1.000000 0.000000 0.000000
  outer loop
    vertex 40.000000 0.000000 0.000000
    vertex 40.000000 10.000000 4.000000
    vertex 40.000000 10.000000 0.000000
  endloop
endfacet
facet normal -1.000000 0.000000 0.000000
  outer loop
    vertex 40.000000 0.000000 0.000000
    vertex 40.000000 0.000000 4.000000
    vertex 40.000000 10.000000 4.000000
  endloop
endfacet
facet normal 0.000000 0.000000 1.000000
  outer loop
    vertex 30.000000 2.000000 4.000000
    vertex 36.000000 2.000000 4.000000
    vertex 36.000000 8.000000 4.000000
  endloop
endfacet
facet normal 0.000000 0.000000 1.000000
  outer loop
    vertex 30.000000 2.000000 4.000000
    vertex 36.000000 8.000000 4.000000
    vertex 30.000000 8.000000 4.000000
  endloop
endfacet
facet normal 0.000000 0.000000 -1.000000
  outer loop
    vertex 30.000000 2.000000 7.000000
    vertex 36.000000 8.000000 7.000000
    vertex 36.000000 2.000000 7.000000
  endloop
endfacet
facet normal 0.000000 0.000000 -1.000000
  outer loop
    vertex 30.000000 2.000000 7.000000
    vertex 30.000000 8.000000 7.000000
    vertex 36.000000 8.000000 7.000000
  endloop
endfacet
facet normal 0.000000 1.000000 0.000000
  outer loop
    vertex 30.000000 2.000000 4.000000
    vertex 36.000000 2.000000 7.000000
    vertex 36.000000 2.000000 4.000000
  endloop
endfacet
facet normal 0.000000 1.000000 0.000000
  outer loop
    vertex 30.000000 2.000000 4.000000
    vertex 30.000000 2.000000 7.000000
    vertex 36.000000 2.000000 7.000000
  endloop
endfacet
facet normal 0.000000 -1.000000 0.000000
  outer loop
    vertex 30.000000 8.000000 4.000000
    vertex 36.000000 8.000000 4.000000
    vertex 36.000000 8.000000 7.000000
  endloop
endfacet
facet normal 0.000000 -1.000000 0.000000
  outer loop
    vertex 30.000000 8.000000 4.000000
    vertex 36.000000 8.000000 7.000000
    vertex 30.000000 8.000000 7.000000
  endloop
endfacet
facet normal 1.000000 0.000000 0.000000
  outer loop
    vertex 30.000000 2.000000 4.000000
    vertex 30.000000 8.000000 4.000000
    vertex 30.000000 8.000000 7.000000
  endloop
endfacet
facet normal 1.000000 0.000000 0.000000
  outer loop
    vertex 30.000000 2.000000 4.000000
    vertex 30.000000 8.000000 7.000000
    vertex 30.000000 2.000000 7.000000
  endloop
endfacet
facet normal -1.000000 0.000000 0.000000
  outer loop
    vertex 36.000000 2.000000 4.000000
    vertex 36.000000 8.000000 7.000000
    vertex 36.000000 8.000000 4.000000
  endloop
endfacet
facet normal -1.000000 0.000000 0.000000
  outer loop
    vertex 36.000000 2.000000 4.000000
    vertex 36.000000 2.000000 7.000000
    vertex 36.000000 8.000000 7.000000
  endloop
endfacet
facet normal 0.000000 0.000000 1.000000
  outer loop
    vertex 2.000000 30.000000 4.000000
    vertex 8.000000 30.000000 4.000000
    vertex 8.000000 36.000000 4.000000
  endloop
endfacet
facet normal 0.000000 0.000000 1.000000
  outer loop
    vertex 2.000000 30.000000 4.000000
    vertex 8.000000 36.000000 4.000000
    vertex 2.000000 36.000000 4.000000
  endloop
endfacet
facet normal 0.000000 0.000000 -1.000000
  outer loop
    vertex 2.000000 30.000000 7.000000
    vertex 8.000000 36.000000 7.000000
    vertex 8.000000 30.000000 7.000000
  endloop
endfacet
facet normal 0.000000 0.000000 -1.000000
  outer loop
    vertex 2.000000 30.000000 7.000000
    vertex 2.000000 36.000000 7.000000
    vertex 8.000000 36.000000 7.000000
  endloop
endfacet
facet normal 0.000000 1.000000 0.000000
  outer loop
    vertex 2.000000 30.000000 4.000000
    vertex 8.000000 30.000000 7.000000
    vertex 8.000000 30.000000 4.000000
  endloop
endfacet
facet normal 0.000000 1.000000 0.000000
  outer loop
    vertex 2.000000 30.000000 4.000000
    vertex 2.000000 30.000000 7.000000
    vertex 8.000000 30.000000 7.000000
  endloop
endfacet
facet normal 0.000000 -1.000000 0.000000
  outer loop
    vertex 2.000000 36.000000 4.000000
    vertex 8.000000 36.000000 4.000000
    vertex 8.000000 36.000000 7.000000
  endloop
endfacet
facet normal 0.000000 -1.000000 0.000000
  outer loop
    vertex 2.000000 36.000000 4.000000
    vertex 8.000000 36.000000 7.000000
    vertex 2.000000 36.000000 7.000000
  endloop
endfacet
facet normal 1.000000 0.000000 0.000000
  outer loop
    vertex 2.000000 30.000000 4.000000
    vertex 2.000000 36.000000 4.000000
    vertex 2.000000 36.000000 7.000000
  endloop
endfacet
facet normal 1.000000 0.000000 0.000000
  outer loop
    vertex 2.000000 30.000000 4.000000
    vertex 2.000000 36.000000 7.000000
    vertex 2.000000 30.000000 7.000000
  endloop
endfacet
facet normal -1.000000 0.000000 0.000000
  outer loop
    vertex 8.000000 30.000000 4.000000
    vertex 8.000000 36.000000 7.000000
    vertex 8.000000 36.000000 4.000000
  endloop
endfacet
facet normal -1.000000 0.000000 0.000000
  outer loop
    vertex 8.000000 30.000000 4.000000
    vertex 8.000000 30.000000 7.000000
    vertex 8.000000 36.000000 7.000000
  endloop
endfacet
endsolid l_bracket